<?xml version="1.0" standalone="no"?>
<!DOCTYPE svg PUBLIC "-//W3C//DTD SVG 20010904//EN"
 "http://www.w3.org/TR/2001/REC-SVG-20010904/DTD/svg10.dtd">
<svg version="1.0" xmlns="http://www.w3.org/2000/svg"
 width="877.000000pt" height="473.000000pt" viewBox="0 0 877.000000 473.000000"
 preserveAspectRatio="xMidYMid meet">

<g transform="translate(0.000000,473.000000) scale(0.100000,-0.100000)"
fill="#000000" stroke="none">
<path d="M4638 4393 c7 -3 16 -2 19 1 4 3 -2 6 -13 5 -11 0 -14 -3 -6 -6z"/>
<path d="M4597 4320 c-16 -19 -23 -37 -20 -50 6 -22 39 -50 61 -50 18 0 62 46
62 65 0 20 -44 65 -64 65 -8 0 -25 -13 -39 -30z m88 -19 c7 -24 -3 -49 -27
-62 -30 -16 -70 14 -66 49 6 51 77 61 93 13z"/>
<path d="M4751 4284 c0 -11 3 -14 6 -6 3 7 2 16 -1 19 -3 4 -6 -2 -5 -13z"/>
<path d="M4730 4228 c-12 -22 -12 -22 6 -6 10 10 15 20 12 24 -4 3 -12 -5 -18
-18z"/>
<path d="M4540 4221 c0 -10 29 -36 34 -30 1 2 -6 12 -16 22 -10 9 -18 13 -18
8z"/>
<path d="M5550 4195 c0 -8 4 -15 10 -15 5 0 7 7 4 15 -4 8 -8 15 -10 15 -2 0
-4 -7 -4 -15z"/>
<path d="M6380 4050 c-8 -5 -10 -10 -5 -10 6 0 17 5 25 10 8 5 11 10 5 10 -5
0 -17 -5 -25 -10z"/>
<path d="M6532 4054 c9 -3 19 -15 22 -27 4 -18 4 -18 3 3 -1 17 -8 25 -22 27
-14 1 -15 0 -3 -3z"/>
<path d="M2779 4023 c-29 -7 -34 -73 -5 -73 6 0 196 0 422 -1 347 0 415 -3
433 -15 20 -14 21 -24 21 -158 0 -97 -4 -146 -12 -154 -9 -9 -132 -12 -494
-12 -451 0 -483 -1 -504 -18 -19 -16 -21 -22 -11 -40 l12 -22 500 0 c427 0
504 2 529 15 30 15 60 61 60 90 0 13 19 15 131 15 127 0 132 -1 163 -27 17
-14 45 -32 63 -40 49 -20 132 -17 171 7 18 11 35 20 37 20 3 0 5 -71 5 -158 0
-145 -2 -160 -20 -177 -15 -14 -20 -33 -22 -99 l-3 -81 -140 -3 c-117 -2 -142
-5 -152 -19 -8 -11 -13 -50 -13 -105 0 -81 2 -91 24 -111 19 -18 24 -34 27
-92 5 -82 31 -126 91 -152 l37 -17 3 -145 3 -146 194 -3 c134 -2 198 1 207 9
11 9 14 44 14 149 l0 138 30 12 c63 26 100 97 100 193 0 33 4 47 14 47 21 0
26 23 26 120 0 49 -3 95 -6 104 -5 14 -28 16 -149 16 l-143 0 -3 84 c-3 61 -9
89 -21 103 -15 16 -17 51 -20 283 -3 249 -4 267 -25 305 -27 50 -58 80 -105
100 -74 30 -184 10 -232 -44 -18 -19 -29 -21 -151 -21 l-132 0 -7 31 c-7 39
-55 84 -97 93 -35 7 -824 6 -850 -1z m1451 -138 c29 -15 70 -79 70 -110 0 -31
-41 -95 -70 -110 -16 -8 -48 -15 -71 -15 -35 0 -48 6 -80 39 -34 34 -39 44
-39 86 0 42 5 52 39 86 32 33 45 39 80 39 23 0 55 -7 71 -15z m-280 -110 l0
-45 -104 0 -103 0 -6 37 c-4 20 -4 40 -1 45 3 4 52 8 110 8 l104 0 0 -45z
m690 -805 l0 -40 -300 0 -300 0 0 40 0 40 300 0 300 0 0 -40z m-518 -205 c2
-41 0 -75 -4 -75 -19 0 -38 49 -38 97 0 46 3 53 19 53 17 0 20 -9 23 -75z
m348 55 c0 -19 -7 -20 -130 -20 -123 0 -130 1 -130 20 0 19 7 20 130 20 123 0
130 -1 130 -20z m125 -24 c5 -31 2 -52 -9 -75 -26 -49 -36 -37 -36 44 0 68 2
75 19 75 16 0 21 -9 26 -44z m-125 -251 l0 -165 -130 0 -130 0 0 165 0 165
130 0 130 0 0 -165z"/>
<path d="M4137 3802 c-22 -24 -21 -35 2 -56 12 -11 27 -15 40 -11 29 9 37 42
15 66 -21 24 -36 24 -57 1z"/>
<path d="M6370 4016 c0 -2 8 -10 18 -17 15 -13 16 -12 3 4 -13 16 -21 21 -21
13z"/>
<path d="M6379 3923 c-13 -16 -12 -17 4 -4 9 7 17 15 17 17 0 8 -8 3 -21 -13z"/>
<path d="M6547 3900 c-3 -11 -1 -20 4 -20 5 0 9 9 9 20 0 11 -2 20 -4 20 -2 0
-6 -9 -9 -20z"/>
<path d="M6380 3880 c8 -5 20 -10 25 -10 6 0 3 5 -5 10 -8 5 -19 10 -25 10 -5
0 -3 -5 5 -10z"/>
<path d="M2212 3288 c-7 -7 -12 -16 -12 -22 0 -5 6 -2 13 9 15 20 37 13 37
-11 0 -8 5 -12 11 -9 7 5 4 14 -7 26 -20 22 -26 23 -42 7z"/>
<path d="M2695 3204 c-62 -32 -60 -20 -65 -330 l-5 -286 -567 1 c-615 2 -606
3 -658 -54 l-25 -27 0 -446 c0 -246 2 -476 4 -512 l5 -65 -395 -5 c-437 -6
-435 -5 -458 -72 -7 -19 -11 -131 -11 -288 0 -251 1 -258 23 -291 12 -18 34
-39 47 -46 20 -10 149 -12 582 -10 l558 2 32 33 33 32 3 285 3 285 470 0 c520
0 512 -1 543 64 14 30 16 92 16 529 l0 495 23 6 c12 3 195 6 406 6 367 0 385
1 416 20 54 33 56 49 53 349 l-3 273 -39 34 -38 33 -462 1 c-399 0 -465 -2
-491 -16z m936 -74 c18 -10 19 -24 19 -263 0 -184 -3 -256 -12 -265 -9 -9
-110 -12 -394 -12 -413 0 -428 -2 -499 -56 l-35 -26 0 304 c0 223 3 307 12
316 16 16 879 17 909 2z m-1011 -678 c0 -72 35 -93 87 -52 37 29 45 25 41 -22
l-3 -43 -642 -3 -643 -2 0 73 c0 43 5 78 12 85 9 9 152 12 580 12 l568 0 0
-48z m130 -570 c0 -273 -3 -371 -12 -380 -9 -9 -128 -12 -475 -12 l-463 0 0
44 c0 96 -24 99 -139 16 -74 -53 -90 -60 -131 -60 -25 0 -51 5 -58 12 -9 9
-12 107 -12 380 l0 368 645 0 645 0 0 -368z m-1037 -704 c-2 -166 -7 -306 -12
-311 -14 -14 -1071 -10 -1088 4 -10 9 -13 64 -13 255 0 207 2 245 16 258 14
14 72 16 490 16 l475 0 47 24 c27 14 54 32 61 40 8 9 16 16 20 16 3 0 5 -136
4 -302z"/>
<path d="M2908 2985 c-79 -45 -76 -183 6 -217 58 -24 151 -4 144 31 -4 16 -10
16 -88 5 -28 -5 -40 -1 -55 16 -24 27 -25 83 0 110 21 23 74 27 105 8 15 -10
22 -10 32 0 10 10 8 17 -9 33 -27 28 -98 35 -135 14z"/>
<path d="M3122 2983 c-51 -44 -28 -96 54 -123 55 -19 68 -44 31 -61 -18 -8
-32 -7 -61 5 -40 17 -56 14 -56 -9 0 -19 52 -45 90 -45 37 0 85 23 94 45 18
48 -7 79 -82 104 -35 12 -47 21 -47 36 0 18 6 20 58 18 43 -1 57 1 57 12 0 36
-102 48 -138 18z"/>
<path d="M3335 2975 c-47 -46 -29 -83 58 -115 61 -23 73 -43 34 -61 -18 -8
-33 -7 -62 5 -41 18 -62 10 -52 -18 8 -21 48 -36 93 -36 26 0 44 8 65 29 16
16 29 36 29 44 0 26 -34 56 -85 74 -37 14 -50 24 -50 38 0 18 6 20 58 18 43
-1 57 1 57 12 0 41 -107 49 -145 10z"/>
<path d="M1516 2445 c-20 -20 -20 -39 -2 -55 35 -28 93 11 70 48 -15 23 -48
27 -68 7z"/>
<path d="M1642 2448 c-26 -26 -6 -68 33 -68 41 0 58 36 29 64 -18 19 -45 21
-62 4z"/>
<path d="M1772 2448 c-7 -7 -12 -19 -12 -28 0 -40 61 -55 80 -21 13 25 13 27
-6 45 -18 19 -45 21 -62 4z"/>
<path d="M2163 2068 c-6 -7 -49 -90 -97 -185 -95 -186 -102 -218 -51 -218 29
0 34 8 122 175 50 96 92 184 92 196 2 38 -44 60 -66 32z"/>
<path d="M1799 1963 c-45 -43 -79 -85 -79 -96 0 -22 147 -166 171 -167 19 0
39 19 39 39 0 9 -25 40 -55 71 l-55 56 55 54 c58 58 69 92 36 110 -11 5 -23
10 -26 10 -4 0 -43 -35 -86 -77z"/>
<path d="M2298 2029 c-32 -18 -21 -52 36 -108 l54 -54 -54 -51 c-30 -29 -54
-61 -54 -72 0 -24 18 -44 40 -44 20 0 170 151 170 171 0 16 -151 169 -166 169
-5 0 -17 -5 -26 -11z"/>
<path d="M715 1248 c-3 -8 -4 -61 -3 -119 3 -96 4 -104 23 -104 16 0 21 8 23
43 l3 42 55 0 54 0 0 -45 c0 -37 3 -45 19 -45 26 0 31 18 31 125 0 71 -4 95
-15 105 -21 18 -33 3 -37 -45 l-3 -40 -52 -3 -52 -3 -3 48 c-2 36 -7 49 -21
51 -9 2 -19 -3 -22 -10z"/>
<path d="M944 1246 c-9 -24 5 -36 41 -36 l34 0 3 -92 c3 -82 5 -93 22 -96 29
-6 36 17 34 103 l-3 80 35 5 c27 4 35 10 35 25 0 18 -8 20 -98 23 -79 2 -98 0
-103 -12z"/>
<path d="M1184 1247 c-2 -7 -3 -60 -2 -118 3 -96 4 -104 23 -104 18 0 20 8 23
69 l3 69 30 -42 c34 -46 51 -45 85 6 l19 28 5 -65 c4 -57 8 -65 25 -65 19 0
20 7 20 115 0 137 -11 146 -73 62 l-39 -52 -43 55 c-42 54 -66 68 -76 42z"/>
<path d="M1471 1246 c-8 -9 -11 -48 -9 -117 l3 -104 80 0 c73 0 80 2 80 20 0
17 -8 20 -57 23 l-57 3 -3 91 c-3 91 -13 114 -37 84z"/>
<path d="M6430 3171 c-63 -13 -112 -44 -144 -88 -21 -30 -35 -42 -46 -37 -99
39 -247 -40 -296 -158 -17 -44 -21 -46 -65 -52 -114 -15 -200 -120 -202 -246
-1 -76 21 -126 79 -183 69 -66 75 -67 579 -67 355 0 462 3 498 14 72 22 131
70 169 140 29 54 33 70 33 136 0 59 -5 85 -24 123 -43 88 -131 153 -220 164
-39 4 -51 10 -51 23 0 44 -32 118 -67 153 -65 68 -156 97 -243 78z m141 -96
c40 -21 77 -74 84 -120 7 -39 6 -41 -31 -54 -49 -18 -134 -97 -134 -125 0 -26
18 -46 40 -46 9 0 32 16 51 36 84 89 223 99 308 21 33 -30 71 -115 71 -158 0
-54 -48 -139 -98 -174 l-44 -30 -180 -3 -181 -3 -28 27 c-16 15 -29 37 -29 49
0 33 -33 59 -58 46 -27 -15 -34 -39 -22 -81 6 -19 10 -36 10 -38 0 -2 -105 -2
-233 0 l-234 3 -36 28 c-48 37 -69 79 -69 139 0 135 162 214 270 131 19 -14
42 -39 51 -54 9 -16 22 -31 30 -34 22 -9 49 4 56 26 11 35 -53 117 -118 150
l-37 19 19 39 c66 129 235 134 309 8 23 -38 51 -45 73 -18 22 28 15 51 -33
106 -44 49 -42 67 8 100 57 37 124 41 185 10z"/>
<path d="M4914 3095 c1 -30 50 -28 54 3 2 12 -1 22 -6 22 -6 0 -8 -9 -5 -20 4
-15 0 -20 -15 -20 -11 0 -22 8 -25 18 -3 13 -4 12 -3 -3z"/>
<path d="M7752 2871 c-22 -14 -10 -56 17 -59 31 -5 45 11 37 42 -6 26 -29 33
-54 17z"/>
<path d="M7755 2747 c-10 -8 -16 -23 -13 -38 2 -19 9 -24 33 -24 25 0 31 4 33
27 4 34 -26 54 -53 35z"/>
<path d="M8220 2645 c-9 -10 -9 -15 -1 -15 6 0 11 4 11 9 0 5 8 12 18 14 14 4
14 5 1 6 -9 0 -22 -6 -29 -14z"/>
<path d="M8267 2630 c-3 -11 -1 -20 4 -20 5 0 9 9 9 20 0 11 -2 20 -4 20 -2 0
-6 -9 -9 -20z"/>
<path d="M7105 2614 c-19 -20 -16 -43 8 -58 20 -13 50 2 55 26 3 16 -23 48
-38 48 -5 0 -16 -7 -25 -16z"/>
<path d="M7238 2619 c-33 -19 -15 -69 24 -69 15 0 38 27 38 44 0 7 -31 36 -38
36 -4 0 -15 -5 -24 -11z"/>
<path d="M7368 2619 c-33 -19 -15 -69 24 -69 15 0 38 27 38 44 0 7 -31 36 -38
36 -4 0 -15 -5 -24 -11z"/>
<path d="M7492 2618 c-28 -28 -1 -75 38 -63 33 11 21 75 -15 75 -6 0 -16 -5
-23 -12z"/>
<path d="M7615 2610 c-18 -20 -18 -21 3 -43 18 -17 26 -19 40 -11 22 14 27 41
12 59 -17 20 -34 19 -55 -5z"/>
<path d="M7750 2615 c-26 -31 13 -82 44 -56 19 16 21 42 4 59 -16 16 -33 15
-48 -3z"/>
<path d="M8227 2609 c7 -7 15 -10 18 -7 3 3 -2 9 -12 12 -14 6 -15 5 -6 -5z"/>
<path d="M5010 2526 c-81 -24 -101 -35 -159 -91 -67 -64 -99 -122 -114 -210
l-11 -65 -826 -2 -825 -3 -33 -23 c-18 -13 -41 -41 -52 -62 -19 -38 -20 -62
-20 -865 l0 -825 -100 0 c-91 0 -100 -2 -111 -22 -11 -21 -7 -153 6 -208 l6
-25 -1013 3 c-557 1 -1023 0 -1035 -3 -26 -6 -39 -41 -23 -60 11 -13 486 -15
3679 -15 2839 0 3670 3 3679 12 18 18 14 46 -7 58 -13 7 -354 9 -1041 7 -1017
-2 -1021 -2 -1014 18 4 11 9 63 11 116 4 73 2 98 -9 107 -8 6 -56 12 -109 14
l-94 3 -5 837 c-5 831 -5 837 -26 865 -37 50 -80 68 -179 73 l-90 5 -7 52
c-19 128 -112 251 -225 293 -72 27 -191 35 -253 16z m229 -99 c104 -49 164
-145 164 -263 -1 -86 -24 -145 -80 -201 -148 -148 -394 -105 -481 85 -76 168
27 364 211 402 58 12 133 2 186 -23z m-482 -404 c15 -32 29 -61 31 -65 2 -5
-354 -8 -790 -8 -604 0 -797 -3 -806 -12 -9 -9 -12 -180 -12 -710 0 -679 1
-698 19 -708 30 -16 2353 -14 2369 2 17 17 17 1399 0 1416 -7 7 -38 12 -70 12
-32 0 -58 1 -58 3 0 1 11 29 25 62 l24 60 84 3 c77 3 85 1 110 -22 l27 -25 0
-825 0 -825 -654 -1 -654 0 11 29 c8 23 8 33 -3 46 -29 36 -87 -5 -62 -45 6
-11 12 -22 12 -25 0 -3 -295 -5 -655 -5 l-655 0 0 823 c1 865 -1 839 45 865
15 8 239 11 828 12 l807 0 27 -57z m-937 -180 c0 -16 0 -302 1 -638 l0 -610
-278 0 -278 0 -3 625 c-1 344 0 631 3 638 3 9 69 12 280 12 l275 0 0 -27z
m378 -115 c17 -17 15 -44 -4 -62 -12 -12 -38 -16 -114 -16 -103 0 -130 10
-130 49 0 34 21 41 130 41 69 0 110 -4 118 -12z m212 -128 c23 -23 24 -30 7
-53 -11 -16 -31 -17 -186 -15 -166 3 -174 4 -188 25 -13 19 -12 24 6 42 20 20
32 21 181 21 147 0 162 -2 180 -20z m254 7 c12 -9 17 -23 14 -42 l-3 -30 -95
-3 c-80 -2 -97 0 -107 15 -17 23 -16 30 7 53 16 16 33 20 93 20 44 0 80 -5 91
-13z m290 7 c26 -10 38 -41 26 -64 -10 -18 -21 -20 -123 -20 -114 0 -137 7
-137 39 0 8 7 23 17 33 13 15 32 18 109 18 51 0 100 -3 108 -6z m-456 -136 c7
-7 12 -21 12 -33 0 -42 -14 -45 -234 -45 -181 0 -212 2 -228 17 -22 20 -23 31
-1 55 15 16 35 18 228 18 151 0 214 -3 223 -12z m-300 -170 c7 -7 12 -21 12
-33 0 -12 -5 -26 -12 -33 -16 -16 -220 -16 -236 0 -18 18 -15 55 6 67 25 15
215 14 230 -1z m86 -134 c46 -45 -1 -74 -121 -74 -80 0 -96 3 -113 20 -20 20
-19 29 3 58 15 19 211 17 231 -4z m514 4 c18 -18 14 -56 -7 -68 -12 -6 -101
-10 -220 -10 -187 0 -202 1 -221 20 -20 20 -18 47 4 62 19 13 431 9 444 -4z
m260 0 c17 -17 15 -44 -4 -62 -22 -23 -160 -22 -186 1 -10 9 -18 24 -18 33 0
32 22 40 110 40 54 0 91 -5 98 -12z m-566 -125 c10 -9 18 -24 18 -33 0 -37
-18 -40 -242 -40 -207 0 -218 1 -228 20 -12 22 0 54 22 63 7 3 103 6 212 6
172 1 202 -1 218 -16z m393 -133 c15 -17 16 -24 7 -45 l-12 -25 -191 0 c-165
0 -195 2 -211 17 -22 20 -23 31 -1 55 14 16 35 18 203 18 174 0 188 -1 205
-20z m-641 -132 c13 -19 14 -25 2 -43 -11 -17 -26 -20 -99 -23 -83 -3 -87 -2
-103 23 -16 24 -16 27 1 45 15 17 31 20 101 20 74 0 85 -2 98 -22z m424 10
c18 -18 14 -56 -7 -68 -11 -6 -88 -10 -177 -10 -132 0 -160 3 -176 17 -22 20
-23 31 -1 55 14 16 34 18 183 18 116 0 170 -4 178 -12z m-513 -535 l33 -38
187 -3 187 -3 39 40 38 41 647 0 646 0 -4 -62 c-4 -51 -9 -65 -32 -85 l-27
-23 -1479 0 c-955 0 -1488 4 -1505 10 -31 12 -55 63 -55 120 l0 40 646 0 647
0 32 -37z"/>
<path d="M5141 2235 c-71 -69 -78 -73 -89 -55 -6 10 -22 24 -34 31 -17 8 -13
1 13 -26 l36 -36 79 75 c82 78 101 87 128 60 31 -30 18 -54 -86 -156 -57 -55
-94 -96 -83 -90 39 20 195 189 195 211 0 27 -34 61 -61 61 -13 0 -52 -29 -98
-75z"/>
<path d="M4945 2205 c-14 -13 -25 -32 -25 -41 0 -24 122 -144 146 -144 14 1
11 5 -11 14 -34 15 -125 108 -125 129 0 17 20 42 45 55 11 6 14 12 7 12 -7 0
-24 -11 -37 -25z"/>
<path d="M3370 1726 c-6 -8 -10 -25 -8 -38 3 -22 7 -23 107 -26 108 -3 131 4
131 39 0 29 -32 39 -128 39 -66 0 -93 -4 -102 -14z"/>
<path d="M3452 1598 c-18 -18 -14 -46 7 -58 11 -5 59 -10 106 -10 92 0 125 10
125 38 0 35 -21 42 -125 42 -65 0 -105 -4 -113 -12z"/>
<path d="M3451 1466 c-7 -8 -10 -24 -6 -36 6 -18 14 -20 94 -20 69 0 92 4 102
16 9 11 10 20 2 32 -14 24 -174 30 -192 8z"/>
<path d="M3361 1292 c-7 -14 -7 -24 2 -36 10 -14 29 -16 122 -14 l110 3 0 30
0 30 -112 3 c-101 2 -113 1 -122 -16z"/>
<path d="M3458 1179 c-21 -12 -23 -40 -6 -57 17 -17 249 -17 266 0 18 18 14
46 -7 58 -25 13 -230 13 -253 -1z"/>
<path d="M3452 1048 c-18 -18 -15 -46 8 -58 32 -17 121 -8 134 13 8 12 8 22 0
35 -14 21 -122 30 -142 10z"/>
<path d="M3450 915 c-6 -8 -10 -22 -8 -32 3 -16 17 -18 120 -21 110 -2 117 -2
123 18 13 41 -10 50 -120 50 -77 0 -106 -4 -115 -15z"/>
<path d="M3443 784 c-3 -9 -2 -24 4 -33 15 -24 181 -23 196 1 8 12 7 21 -2 32
-20 24 -189 23 -198 0z"/>
<path d="M7750 2485 c-26 -31 13 -82 44 -56 19 16 21 42 4 59 -16 16 -33 15
-48 -3z"/>
<path d="M785 2389 c-4 -6 -5 -12 -2 -15 2 -3 7 2 10 11 7 17 1 20 -8 4z"/>
<path d="M825 2360 c-3 -5 -1 -10 4 -10 6 0 11 5 11 10 0 6 -2 10 -4 10 -3 0
-8 -4 -11 -10z"/>
<path d="M7715 2346 c-13 -13 -27 -40 -31 -61 -7 -39 -37 -64 -103 -86 -29
-10 -37 -8 -62 10 -62 46 -121 35 -154 -30 -15 -29 -15 -33 12 -84 25 -51 26
-58 14 -92 -22 -65 -37 -80 -81 -87 -50 -8 -90 -47 -90 -87 0 -41 43 -86 91
-94 43 -7 58 -24 80 -87 12 -34 11 -41 -15 -92 -26 -51 -27 -56 -12 -83 32
-63 70 -73 142 -38 53 26 56 26 88 11 19 -9 38 -16 44 -16 16 0 35 -29 52 -78
18 -55 53 -77 106 -68 38 8 61 35 70 83 7 37 23 52 81 77 41 18 41 18 96 -8
63 -31 96 -28 127 11 25 33 25 80 0 118 -25 38 -25 59 3 114 19 38 29 46 69
58 49 14 88 51 88 85 0 39 -33 78 -75 89 -22 6 -46 13 -53 15 -14 4 -52 86
-52 112 0 9 9 32 20 50 29 47 26 88 -9 123 -37 36 -75 38 -121 4 -42 -31 -53
-31 -114 3 -43 23 -51 33 -63 74 -7 26 -23 54 -35 63 -34 23 -85 19 -113 -9z
m112 -168 c16 -15 58 -38 95 -52 71 -27 99 -25 152 9 15 10 26 13 26 7 0 -6
-10 -17 -22 -23 -38 -19 -78 -62 -78 -82 0 -10 9 -30 20 -44 26 -33 50 -115
50 -168 0 -71 -27 -139 -75 -193 -59 -66 -123 -93 -222 -94 -66 -1 -81 3 -142
35 l-69 35 -29 -21 c-16 -11 -39 -36 -51 -54 -12 -18 -27 -33 -32 -33 -6 0 1
17 15 37 32 48 32 85 -1 159 -33 77 -58 102 -112 116 l-44 11 36 12 c63 22 87
44 117 112 36 80 37 117 4 166 -28 40 -23 47 13 21 47 -33 80 -35 150 -8 82
31 119 65 134 123 l11 45 13 -45 c7 -25 26 -57 41 -71z m406 -355 c-7 -2 -19
-2 -25 0 -7 3 -2 5 12 5 14 0 19 -2 13 -5z m-127 -320 c-7 -7 -26 7 -26 19 0
6 6 6 15 -2 9 -7 13 -15 11 -17z m-329 -125 c-3 -8 -6 -5 -6 6 -1 11 2 17 5
13 3 -3 4 -12 1 -19z"/>
<path d="M7698 2116 c-168 -48 -264 -219 -213 -379 19 -62 64 -113 90 -103 10
3 29 -4 48 -18 18 -13 58 -32 91 -41 55 -16 62 -16 123 0 163 44 247 219 175
362 -11 22 -28 45 -36 52 -10 8 -14 22 -10 35 16 65 -156 124 -268 92z m157
-142 c45 -21 85 -79 92 -133 12 -90 -74 -183 -171 -185 -120 -1 -204 118 -161
229 37 98 141 136 240 89z"/>
<path d="M6847 1636 c-64 -23 -119 -73 -155 -141 -27 -50 -27 -51 -32 -330 -3
-195 -9 -287 -17 -302 -7 -11 -32 -30 -56 -42 -41 -20 -59 -21 -364 -21 -315
0 -322 0 -328 -20 -15 -49 -5 -50 339 -50 193 0 336 4 359 11 49 13 105 63
128 114 16 35 19 70 19 303 0 295 2 304 68 364 49 44 73 52 151 46 44 -3 68
-11 94 -31 60 -45 80 -90 85 -183 l4 -82 -52 -17 c-68 -23 -131 -84 -153 -150
-13 -37 -17 -86 -17 -211 0 -140 3 -171 20 -218 68 -182 326 -212 441 -51 40
56 52 132 47 305 -3 109 -9 155 -22 188 -23 53 -104 127 -153 139 l-38 9 -6
94 c-4 76 -11 106 -33 148 -28 55 -87 106 -149 129 -43 16 -134 15 -180 -1z
m394 -462 c25 -11 52 -33 70 -57 l29 -40 0 -182 c0 -172 -1 -184 -22 -215 -62
-91 -175 -107 -255 -37 -56 49 -63 76 -63 251 0 165 6 195 48 240 52 56 119
69 193 40z"/>
<path d="M7142 1048 c-27 -27 -6 -68 35 -68 29 0 48 33 33 60 -12 22 -49 27
-68 8z"/>
<path d="M2077 1303 c-4 -3 -7 -51 -7 -106 l0 -99 34 -34 34 -34 360 0 c243 0
363 3 367 11 4 5 4 21 1 35 l-6 24 -344 0 c-402 0 -376 -7 -376 107 0 39 -3
78 -6 87 -6 16 -45 22 -57 9z"/>
<path d="M7750 1215 c-26 -31 13 -82 44 -56 19 16 21 42 4 59 -16 16 -33 15
-48 -3z"/>
<path d="M7747 1093 c-14 -13 -6 -53 12 -62 28 -16 56 9 47 42 -5 20 -13 27
-30 27 -12 0 -26 -3 -29 -7z"/>
<path d="M7744 956 c-12 -31 0 -51 31 -51 27 0 30 3 30 30 0 25 -4 30 -28 33
-17 2 -29 -2 -33 -12z"/>
<path d="M2247 560 c4 -15 0 -20 -15 -20 -11 0 -23 5 -25 10 -3 6 -4 5 -3 -2
2 -7 14 -13 27 -13 17 0 25 6 27 23 2 12 -1 22 -6 22 -6 0 -8 -9 -5 -20z"/>
<path d="M7795 530 c-4 -6 -4 -14 -1 -17 3 -4 6 -1 6 5 0 7 10 12 21 12 16 0
20 -5 16 -20 -3 -11 -1 -20 5 -20 5 0 8 10 6 23 -3 24 -41 36 -53 17z"/>
<path d="M145 114 c-19 -20 -16 -43 8 -58 20 -13 50 2 55 26 3 16 -23 48 -38
48 -5 0 -16 -7 -25 -16z"/>
<path d="M328 123 c-35 -9 -32 -59 6 -68 11 -3 73 -4 136 -3 113 3 115 3 118
27 6 42 -20 51 -137 50 -58 -1 -113 -3 -123 -6z"/>
<path d="M8188 119 c-10 -5 -18 -18 -18 -27 0 -36 20 -42 147 -42 111 0 123 2
133 19 13 26 4 48 -23 55 -37 10 -221 6 -239 -5z"/>
<path d="M8566 114 c-19 -18 -19 -20 -6 -45 12 -21 40 -25 58 -7 16 16 15 33
-4 52 -19 20 -29 20 -48 0z"/>
</g>
</svg>
